<svg xmlns="http://www.w3.org/2000/svg" xmlns:xlink="http://www.w3.org/1999/xlink" width="20" height="20" viewBox="0 0 20 20">
  <defs>
    <clipPath id="clip-path">
      <rect id="Rectangle_19124" data-name="Rectangle 19124" width="20" height="20" fill="#08197c" stroke="#707070" stroke-width="1"/>
    </clipPath>
  </defs>
  <g id="copy_grey" clip-path="url(#clip-path)">
    <path id="Path_51962" data-name="Path 51962" d="M6.039,5.039V2.76A.76.76,0,0,1,6.8,2h9.117a.76.76,0,0,1,.76.76V13.4a.76.76,0,0,1-.76.76H13.636v2.279a.762.762,0,0,1-.765.76H3.765A.76.76,0,0,1,3,16.435L3,5.8a.762.762,0,0,1,.765-.76ZM4.522,6.558l0,9.117h7.6V6.558ZM7.558,5.039h6.078v7.6h1.519V3.519h-7.6Z" transform="translate(0.163 0.403)" fill="#747474"/>
  </g>
</svg>
