<svg xmlns="http://www.w3.org/2000/svg" xmlns:xlink="http://www.w3.org/1999/xlink" width="16" height="16" viewBox="0 0 16 16">
  <defs>
    <clipPath id="clip-path">
      <rect id="Rectangle_19125" data-name="Rectangle 19125" width="16" height="16" transform="translate(1180 114)" fill="#fff" stroke="#707070" stroke-width="1"/>
    </clipPath>
  </defs>
  <g id="info_grey" transform="translate(130 -1180) rotate(90)" clip-path="url(#clip-path)">
    <g id="information_2_" data-name="information (2)" transform="translate(1180 130) rotate(-90)">
      <path id="Path_51963" data-name="Path 51963" d="M8,0a8,8,0,1,0,8,8A8.009,8.009,0,0,0,8,0ZM8,14.545A6.545,6.545,0,1,1,14.545,8,6.553,6.553,0,0,1,8,14.545Z" transform="translate(0 0)" fill="#b1b1b1"/>
      <path id="Path_51964" data-name="Path 51964" d="M145.971,70a.97.97,0,1,0,.97.97A.971.971,0,0,0,145.971,70Z" transform="translate(-137.972 -66.606)" fill="#b1b1b1"/>
      <path id="Path_51965" data-name="Path 51965" d="M150.727,140a.727.727,0,0,0-.727.727v4.364a.727.727,0,0,0,1.455,0v-4.364A.727.727,0,0,0,150.727,140Z" transform="translate(-142.727 -133.212)" fill="#b1b1b1"/>
    </g>
  </g>
</svg>
